<svg width="1024" height="1024" viewBox="0 0 1024 1024" fill="none" xmlns="http://www.w3.org/2000/svg">
<rect x="71" y="946" width="875" height="12" fill="#84B7D7"/>
<path d="M552 86C569.03 86 585.832 86.9762 602.353 88.876C428.055 124.766 297 279.078 297 464C297 675.525 468.475 847 680 847C766.736 847 846.738 818.167 910.944 769.564C832.277 883.407 700.85 958 552 958C311.204 958 116 762.796 116 522C116 281.204 311.204 86 552 86Z" fill="url(#paint0_linear_9_136)"/>
<path d="M250.72 713.322L289.985 744H290V763.581L363.002 810.99L362.996 811H363V946H351V817.503L290 777.89V946H278V749.863L250.076 728.047L217 749.527V946H205V821.813L139 859.919V946H127V853H127.001L126.997 852.993L205 807.958V743H205.02L250.714 713.324L250.718 713.32L250.72 713.322Z" fill="#84B7D7"/>
<path d="M677 829H665V771H677V829ZM580 288.453L676.997 367H677V447H665V372.726L573.499 298.63L482 372.725V765H470V442.806L387 494.67V675H375V488H375.03L470 428.656V367H470.002L568 287.643V205H580V288.453Z" fill="#84B7D7"/>
<path d="M808 460C861.019 460 904 502.981 904 556C904 584.656 891.443 610.379 871.533 627.969L842.99 656.512L843.03 656.552L717.406 782.176L717.366 782.136L717.324 782.179L591.7 656.555L591.742 656.512L559.189 623.959L559.192 623.955C541.776 606.577 531 582.547 531 556C531 502.981 573.981 460 627 460C668.76 460 704.292 486.665 717.5 523.896C730.708 486.665 766.24 460 808 460Z" fill="#FBC96B"/>
<path d="M745 596H800V651H745V709H690V651H635V596H690V544H745V596Z" fill="white"/>
<path d="M351.003 817.456V878.273H351V909.005C329.562 897.848 309.169 884.961 290.003 870.53V777.843L351.003 817.456ZM278.003 749.816V861.164C255.76 843.172 235.321 823.037 217.003 801.072V749.48L250.079 728L278.003 749.816Z" fill="white" fill-opacity="0.5"/>
<defs>
<linearGradient id="paint0_linear_9_136" x1="610" y1="86" x2="575.5" y2="958" gradientUnits="userSpaceOnUse">
<stop stop-color="#A3CEE2"/>
<stop offset="1" stop-color="#6390C8"/>
</linearGradient>
</defs>
</svg>
